<svg version="1.1" id="Layer_1" xmlns="http://www.w3.org/2000/svg" xmlns:xlink="http://www.w3.org/1999/xlink" x="0px" y="0px"
	 width="100%" viewBox="0 0 66 108" enable-background="new 0 0 66 108" xml:space="preserve">
<path fill="#4EA8DE" opacity="1.000000" stroke="none" 
	d="
M31.000000,1.000000 
	C32.714359,1.000000 34.428715,1.000000 36.232422,1.229862 
	C43.733665,10.452713 49.418182,20.292803 52.415356,31.709162 
	C55.010849,41.595478 53.520599,53.229034 63.917408,60.054169 
	C64.767487,60.612213 64.692795,62.471813 65.275955,63.609711 
	C65.448296,63.946003 66.403526,63.881069 67.000000,64.000000 
	C67.000000,70.021156 67.000000,76.042305 66.806076,82.196609 
	C64.554497,84.742577 63.790668,82.379929 62.775703,81.244087 
	C59.879494,78.002953 57.033199,74.717224 53.934822,71.183968 
	C52.921185,72.727547 52.172642,73.364258 52.087299,74.080055 
	C51.580498,78.330711 49.034634,79.189949 45.174629,79.071358 
	C37.354115,78.831070 29.513094,78.793625 21.696846,79.095314 
	C18.317509,79.225746 16.926666,77.701569 16.029778,74.947945 
	C15.631125,73.723999 15.160113,72.523628 14.420952,70.480629 
	C11.073741,74.181023 7.604480,77.241806 5.198895,80.985985 
	C3.897375,83.011749 2.605315,82.791130 1.000000,83.000000 
	C1.000000,76.645599 1.000000,70.291206 1.245153,63.806835 
	C5.039604,59.556183 8.626339,55.466587 12.100131,51.283211 
	C12.657729,50.611710 12.940185,49.527088 12.963177,48.623608 
	C13.410725,31.037016 20.146399,15.927733 30.999098,2.405236 
	C31.227869,2.120187 31.009680,1.476422 31.000000,1.000000 
M48.966709,55.978230 
	C48.312675,51.226078 47.611691,46.479828 47.013947,41.720608 
	C45.571999,30.239866 41.074928,20.089422 33.994350,10.753304 
	C24.746367,22.981726 20.436686,36.449291 19.856680,51.316513 
	C19.779631,53.291523 17.964598,55.363144 16.572939,57.080952 
	C14.822347,59.241817 12.678930,61.084438 10.705018,63.064381 
	C10.976946,63.391560 11.248875,63.718739 11.520803,64.045914 
	C12.770208,63.465767 14.018067,62.882256 15.269425,62.306351 
	C16.728359,61.634911 18.190351,60.970119 19.903206,60.187172 
	C20.293398,61.901112 20.736414,63.451801 20.990503,65.032852 
	C21.992060,71.264977 22.808527,71.998375 29.015247,71.999519 
	C32.341225,72.000130 35.676781,71.839935 38.990833,72.038750 
	C43.454491,72.306534 47.025227,72.093109 46.127537,65.916954 
	C45.858871,64.068550 47.024399,62.011700 47.590466,59.828140 
	C51.069202,61.746773 54.221622,63.485435 57.374046,65.224098 
	C57.674316,64.799095 57.974590,64.374092 58.274860,63.949093 
	C55.427338,61.383400 52.579815,58.817703 48.966709,55.978230 
z"/>
<path fill="#000000" opacity="1.000000" stroke="none" 
	d="
M1.000000,83.468666 
	C2.605315,82.791130 3.897375,83.011749 5.198895,80.985985 
	C7.604480,77.241806 11.073741,74.181023 14.420952,70.480629 
	C15.160113,72.523628 15.631125,73.723999 16.029778,74.947945 
	C16.926666,77.701569 18.317509,79.225746 21.696846,79.095314 
	C29.513094,78.793625 37.354115,78.831070 45.174629,79.071358 
	C49.034634,79.189949 51.580498,78.330711 52.087299,74.080055 
	C52.172642,73.364258 52.921185,72.727547 53.934822,71.183968 
	C57.033199,74.717224 59.879494,78.002953 62.775703,81.244087 
	C63.790668,82.379929 64.554497,84.742577 66.806076,82.664886 
	C67.000000,91.597122 67.000000,100.194252 67.000000,109.000000 
	C57.646805,109.000000 48.292061,109.000000 38.287739,108.559410 
	C37.757858,101.346176 38.134422,94.561249 37.811829,87.809738 
	C37.733772,86.176125 35.347065,84.652817 34.021973,83.078789 
	C32.355042,84.613846 29.307856,86.106079 29.258677,87.691322 
	C29.038769,94.779724 29.673725,101.894653 30.000000,109.000000 
	C20.410902,109.000000 10.821805,109.000000 1.000000,109.000000 
	C1.000000,100.647217 1.000000,92.292274 1.000000,83.468666 
M19.447096,103.849350 
	C22.884253,105.800301 26.052900,105.025436 26.663832,101.258400 
	C27.426476,96.555923 27.159533,91.608368 26.682169,86.832077 
	C26.544956,85.459183 24.222359,83.432892 22.764326,83.307793 
	C21.291754,83.181442 18.335846,84.995697 18.298580,86.040703 
	C18.094431,91.765579 18.587875,97.515335 19.447096,103.849350 
M41.000057,95.397438 
	C41.002674,96.894936 40.929508,98.397232 41.023830,99.888931 
	C41.214748,102.908112 42.788464,105.092926 45.871994,104.813538 
	C48.399902,104.584488 50.301979,103.096344 50.066559,99.808929 
	C49.782047,95.835922 49.834641,91.818268 50.048088,87.836380 
	C50.230091,84.441048 47.862453,83.027100 45.557144,83.289398 
	C43.910809,83.476700 41.869389,85.753616 41.204933,87.543777 
	C40.443806,89.594376 41.010338,92.137772 41.000057,95.397438 
z"/>
<path fill="#000000" opacity="1.000000" stroke="none" 
	d="
M67.000000,63.531342 
	C66.403526,63.881069 65.448296,63.946003 65.275955,63.609711 
	C64.692795,62.471813 64.767487,60.612213 63.917408,60.054169 
	C53.520599,53.229034 55.010849,41.595478 52.415356,31.709162 
	C49.418182,20.292803 43.733665,10.452713 36.660885,1.229862 
	C46.952724,1.000000 56.905445,1.000000 67.000000,1.000000 
	C67.000000,21.687368 67.000000,42.375027 67.000000,63.531342 
z"/>
<path fill="#000000" opacity="1.000000" stroke="none" 
	d="
M30.531342,1.000000 
	C31.009680,1.476422 31.227869,2.120187 30.999098,2.405236 
	C20.146399,15.927733 13.410725,31.037016 12.963177,48.623608 
	C12.940185,49.527088 12.657729,50.611710 12.100131,51.283211 
	C8.626339,55.466587 5.039604,59.556183 1.245153,63.338432 
	C1.000000,42.432106 1.000000,21.864216 1.000000,1.000000 
	C10.685551,1.000000 20.374119,1.000000 30.531342,1.000000 
z"/>
<path fill="#5E60CE" opacity="1.000000" stroke="none" 
	d="
M30.444164,109.000000 
	C29.673725,101.894653 29.038769,94.779724 29.258677,87.691322 
	C29.307856,86.106079 32.355042,84.613846 34.021973,83.078789 
	C35.347065,84.652817 37.733772,86.176125 37.811829,87.809738 
	C38.134422,94.561249 37.757858,101.346176 37.819080,108.559410 
	C35.629444,109.000000 33.258884,109.000000 30.444164,109.000000 
z"/>
<path fill="#000000" opacity="1.000000" stroke="none" 
	d="
M49.349503,56.115120 
	C52.579815,58.817703 55.427338,61.383400 58.274860,63.949093 
	C57.974590,64.374092 57.674316,64.799095 57.374046,65.224098 
	C54.221622,63.485435 51.069202,61.746773 47.590466,59.828140 
	C47.024399,62.011700 45.858871,64.068550 46.127537,65.916954 
	C47.025227,72.093109 43.454491,72.306534 38.990833,72.038750 
	C35.676781,71.839935 32.341225,72.000130 29.015247,71.999519 
	C22.808527,71.998375 21.992060,71.264977 20.990503,65.032852 
	C20.736414,63.451801 20.293398,61.901112 19.903206,60.187172 
	C18.190351,60.970119 16.728359,61.634911 15.269425,62.306351 
	C14.018067,62.882256 12.770208,63.465767 11.520803,64.045914 
	C11.248875,63.718739 10.976946,63.391560 10.705018,63.064381 
	C12.678930,61.084438 14.822347,59.241817 16.572939,57.080952 
	C17.964598,55.363144 19.779631,53.291523 19.856680,51.316513 
	C20.436686,36.449291 24.746367,22.981726 33.994350,10.753304 
	C41.074928,20.089422 45.571999,30.239866 47.013947,41.720608 
	C47.611691,46.479828 48.312675,51.226078 49.349503,56.115120 
M42.957092,43.036415 
	C42.744045,41.608379 42.710468,40.124435 42.286076,38.762245 
	C40.673737,33.587040 35.471947,31.316200 30.152645,33.358147 
	C26.317875,34.830219 23.898796,40.155750 26.168503,44.161930 
	C27.565327,46.627426 30.483194,49.073841 33.174896,49.774826 
	C37.749653,50.966198 40.648090,47.626751 42.957092,43.036415 
z"/>
<path fill="#5E60CE" opacity="1.000000" stroke="none" 
	d="
M19.144386,103.552948 
	C18.587875,97.515335 18.094431,91.765579 18.298580,86.040703 
	C18.335846,84.995697 21.291754,83.181442 22.764326,83.307793 
	C24.222359,83.432892 26.544956,85.459183 26.682169,86.832077 
	C27.159533,91.608368 27.426476,96.555923 26.663832,101.258400 
	C26.052900,105.025436 22.884253,105.800301 19.144386,103.552948 
z"/>
<path fill="#5E60CE" opacity="1.000000" stroke="none" 
	d="
M41.000053,94.932251 
	C41.010338,92.137772 40.443806,89.594376 41.204933,87.543777 
	C41.869389,85.753616 43.910809,83.476700 45.557144,83.289398 
	C47.862453,83.027100 50.230091,84.441048 50.048088,87.836380 
	C49.834641,91.818268 49.782047,95.835922 50.066559,99.808929 
	C50.301979,103.096344 48.399902,104.584488 45.871994,104.813538 
	C42.788464,105.092926 41.214748,102.908112 41.023830,99.888931 
	C40.929508,98.397232 41.002674,96.894936 41.000053,94.932251 
z"/>
<path fill="#4EA8DE" opacity="1.000000" stroke="none" 
	d="
M42.828125,43.415092 
	C40.648090,47.626751 37.749653,50.966198 33.174896,49.774826 
	C30.483194,49.073841 27.565327,46.627426 26.168503,44.161930 
	C23.898796,40.155750 26.317875,34.830219 30.152645,33.358147 
	C35.471947,31.316200 40.673737,33.587040 42.286076,38.762245 
	C42.710468,40.124435 42.744045,41.608379 42.828125,43.415092 
z"/>
</svg>